<svg width="48" height="48" viewBox="0 0 48 48" fill="none" xmlns="http://www.w3.org/2000/svg">
<rect width="48" height="48" rx="4" fill="#44C651"/>
<path fill-rule="evenodd" clip-rule="evenodd" d="M43.092 10.222C43.6544 10.7846 43.9704 11.5475 43.9704 12.343C43.9704 13.1385 43.6544 13.9014 43.092 14.464L20.606 36.95C20.3088 37.2472 19.956 37.483 19.5677 37.6439C19.1795 37.8047 18.7633 37.8875 18.343 37.8875C17.9227 37.8875 17.5065 37.8047 17.1182 37.6439C16.7299 37.483 16.3771 37.2472 16.08 36.95L4.90799 25.78C4.62146 25.5033 4.39291 25.1722 4.23569 24.8062C4.07846 24.4402 3.9957 24.0466 3.99224 23.6482C3.98878 23.2499 4.06468 22.8548 4.21553 22.4861C4.36637 22.1175 4.58913 21.7825 4.87081 21.5008C5.15248 21.2191 5.48744 20.9964 5.85613 20.8455C6.22482 20.6947 6.61986 20.6188 7.01819 20.6223C7.41653 20.6257 7.81019 20.7085 8.1762 20.8657C8.54222 21.0229 8.87325 21.2515 9.14999 21.538L18.342 30.73L38.848 10.222C39.1266 9.94323 39.4574 9.72208 39.8215 9.5712C40.1856 9.42031 40.5759 9.34265 40.97 9.34265C41.3641 9.34265 41.7544 9.42031 42.1185 9.5712C42.4826 9.72208 42.8134 9.94323 43.092 10.222Z" fill="white"/>
</svg>
