<svg width="103" height="64" viewBox="0 0 103 64" fill="none" xmlns="http://www.w3.org/2000/svg">
<g clip-path="url(#clip0_1_693)">
<path d="M57.3277 41.4999C56.7003 40.3185 55.7622 39.4536 54.5075 38.9025C53.2762 38.325 51.696 38.0377 49.767 38.0377C48.8876 38.0377 47.9231 38.1256 46.8677 38.3015C45.8387 38.4774 44.7364 38.8028 43.5579 39.2777C42.9804 39.48 42.567 39.7937 42.3149 40.2188C42.0657 40.6204 41.9396 41.0484 41.9396 41.4999C41.9396 41.925 42.051 42.3266 42.2768 42.7019C42.5025 43.0536 42.8308 43.3058 43.2559 43.4553C43.6839 43.5813 44.1706 43.5168 44.7247 43.2677C45.6774 42.8924 46.5423 42.6286 47.3191 42.4761C48.1224 42.3002 48.8612 42.2152 49.5384 42.2152C50.7433 42.2152 51.5964 42.4527 52.0977 42.9276C52.599 43.3791 52.8511 44.1589 52.8511 45.2611V45.9002H51.4967C48.8876 45.9002 46.7944 46.0761 45.2113 46.4279C43.6312 46.7533 42.4908 47.3191 41.7901 48.1224C41.0865 48.8993 40.7347 49.9635 40.7347 51.3208C40.7347 52.4495 41.0367 53.4638 41.6377 54.3667C42.2416 55.2697 43.08 55.985 44.1589 56.5127C45.2377 57.0374 46.4543 57.3013 47.8087 57.3013C48.7879 57.3013 49.6527 57.14 50.4061 56.8117C51.1566 56.4628 51.7723 55.985 52.2501 55.384C52.555 55 52.7895 54.569 52.9625 54.1029V54.3286C52.9625 55.2579 53.1882 55.9733 53.6397 56.4746C54.1176 56.9759 54.783 57.228 55.6361 57.228C56.4892 57.228 57.14 56.9759 57.5915 56.4746C58.043 55.9733 58.2687 55.2579 58.2687 54.3286V45.9765C58.2687 44.1442 57.955 42.652 57.3277 41.4999ZM52.8511 49.5882C52.8511 50.3416 52.6869 51.0188 52.3615 51.6198C52.0361 52.1973 51.5846 52.6605 51.0071 53.0123C50.456 53.3377 49.8169 53.5019 49.0869 53.5019C48.1605 53.5019 47.4452 53.2762 46.9439 52.8247C46.466 52.3732 46.2286 51.7957 46.2286 51.0951C46.2286 50.5175 46.3928 50.0661 46.7182 49.7377C47.07 49.4123 47.6328 49.1866 48.4097 49.0605C49.213 48.911 50.2537 48.8348 51.5348 48.8348H52.8511V49.5882Z" fill="url(#paint0_linear_1_693)"/>
<path d="M79.1535 42.5142C78.4763 41.0836 77.5235 39.9813 76.2952 39.2044C75.0903 38.4246 73.686 38.0377 72.0795 38.0377C70.599 38.0377 69.2827 38.4129 68.1277 39.1663C67.3215 39.6882 66.7088 40.3331 66.2866 41.0983V40.9722C66.2866 40.0429 66.0462 39.3422 65.5713 38.8644C65.0935 38.3631 64.3928 38.1139 63.4635 38.1139C62.584 38.1139 61.8951 38.3631 61.3938 38.8644C60.9159 39.3422 60.6785 40.0429 60.6785 40.9722V61.1036C60.6785 62.0563 60.9159 62.7717 61.3938 63.2466C61.8951 63.7479 62.6104 64 63.5397 64C64.469 64 65.1316 63.7479 65.6094 63.2466C66.1107 62.7717 66.3599 62.0563 66.3599 61.1036V54.3843C66.7938 55.1114 67.4065 55.7358 68.2039 56.2488C69.3326 56.9495 70.6254 57.3013 72.0795 57.3013C73.7095 57.3013 75.1284 56.9143 76.3303 56.1345C77.5352 55.3576 78.4763 54.2407 79.1535 52.7866C79.8307 51.3325 80.1708 49.6146 80.1708 47.6328C80.1708 45.6511 79.8307 43.9449 79.1535 42.5142ZM73.9235 50.6788C73.5981 51.4586 73.1202 52.0478 72.4929 52.4495C71.8919 52.8482 71.1883 53.0504 70.388 53.0504C69.1567 53.0504 68.1658 52.6107 67.4153 51.7341C66.6619 50.8312 66.2866 49.4621 66.2866 47.6328C66.2866 46.4015 66.4596 45.3989 66.8114 44.6221C67.1632 43.8188 67.641 43.2295 68.242 42.8543C68.8694 42.4761 69.5847 42.2885 70.388 42.2885C71.5899 42.2885 72.5691 42.7282 73.3225 43.6048C74.073 44.4579 74.4512 45.8006 74.4512 47.6328C74.4512 48.8612 74.2753 49.8784 73.9235 50.6788Z" fill="url(#paint1_linear_1_693)"/>
<path d="M101.056 42.5142C100.378 41.0836 99.4227 39.9813 98.1943 39.2044C96.9894 38.4246 95.5852 38.0377 93.9816 38.0377C92.5011 38.0377 91.1848 38.4129 90.0298 39.1663C89.2207 39.6882 88.608 40.3331 88.1858 41.0983V40.9722C88.1858 40.0429 87.9483 39.3422 87.4705 38.8644C86.9956 38.3631 86.292 38.1139 85.3627 38.1139C84.4861 38.1139 83.7972 38.3631 83.2929 38.8644C82.818 39.3422 82.5806 40.0429 82.5806 40.9722V61.1036C82.5806 62.0563 82.818 62.7717 83.2929 63.2466C83.7972 63.7479 84.5096 64 85.4389 64C86.3682 64 87.0308 63.7479 87.5086 63.2466C88.0099 62.7717 88.262 62.0563 88.262 61.1036V54.3843C88.6959 55.1114 89.3086 55.7358 90.106 56.2488C91.2347 56.9495 92.5246 57.3013 93.9816 57.3013C95.6116 57.3013 97.0275 56.9143 98.2324 56.1345C99.4373 55.3576 100.378 54.2407 101.056 52.7866C101.733 51.3325 102.07 49.6146 102.07 47.6328C102.07 45.6511 101.733 43.9449 101.056 42.5142ZM95.8227 50.6788C95.4972 51.4586 95.0223 52.0478 94.395 52.4495C93.791 52.8482 93.0904 53.0504 92.2871 53.0504C91.0588 53.0504 90.0679 52.6107 89.3145 51.7341C88.5611 50.8312 88.1858 49.4621 88.1858 47.6328C88.1858 46.4015 88.3617 45.3989 88.7135 44.6221C89.0624 43.8188 89.5402 43.2295 90.1412 42.8543C90.7686 42.4761 91.4839 42.2885 92.2871 42.2885C93.492 42.2885 94.4682 42.7282 95.2217 43.6048C95.9751 44.4579 96.3503 45.8006 96.3503 47.6328C96.3503 48.8612 96.1744 49.8784 95.8227 50.6788Z" fill="url(#paint2_linear_1_693)"/>
<path d="M43.5315 31.163C44.4872 31.6995 45.6862 31.9663 47.1315 31.9663C48.4361 31.9663 49.5648 31.6409 50.5205 30.9871C51.1889 30.5298 51.7459 29.9405 52.1973 29.2194C52.1973 30.0725 52.4201 30.7321 52.8599 31.1953C53.3026 31.6614 53.9446 31.893 54.7801 31.893C56.4804 31.893 57.3306 30.9959 57.3306 29.2018V16.7981C57.3306 15.9128 57.0961 15.2502 56.6329 14.8076C56.1902 14.3649 55.5394 14.145 54.6775 14.145C53.8156 14.145 53.1853 14.3649 52.7221 14.8076C52.2794 15.2502 52.0566 15.9128 52.0566 16.7981V23.9952C52.0566 25.1591 51.7312 26.1031 51.0775 26.8242C50.4472 27.522 49.6322 27.8738 48.6325 27.8738C47.7237 27.8738 47.0612 27.6304 46.6419 27.1409C46.2227 26.6278 46.0116 25.8597 46.0116 24.8337V16.7981C46.0116 15.9128 45.78 15.2502 45.3139 14.8076C44.8478 14.3649 44.197 14.145 43.3585 14.145C42.5201 14.145 41.8663 14.3649 41.4031 14.8076C40.9605 15.2502 40.7406 15.9128 40.7406 16.7981V24.6959C40.7406 26.3024 40.9634 27.6539 41.4031 28.7503C41.8693 29.8233 42.5787 30.6265 43.5344 31.1601L43.5315 31.163Z" fill="url(#paint3_linear_1_693)"/>
<path d="M62.7834 31.9663C63.6453 31.9663 64.2961 31.723 64.7387 31.2334C65.1814 30.7203 65.4042 30.0109 65.4042 29.1021V17.1528C65.4042 16.2206 65.1697 15.5111 64.7065 15.0216C64.2638 14.5085 63.6218 14.2535 62.7834 14.2535C61.9449 14.2535 61.2589 14.5085 60.7928 15.0216C60.3501 15.5111 60.1302 16.2206 60.1302 17.1528V29.1021C60.1302 30.0109 60.353 30.7203 60.7928 31.2334C61.2589 31.723 61.9215 31.9663 62.7834 31.9663Z" fill="url(#paint4_linear_1_693)"/>
<path d="M62.7834 11.3834C63.7625 11.3834 64.5072 11.1636 65.0202 10.7209C65.5332 10.2548 65.7883 9.60394 65.7883 8.7655C65.7883 7.92706 65.5332 7.25279 65.0202 6.81012C64.5072 6.34399 63.7625 6.1124 62.7834 6.1124C61.8042 6.1124 61.0479 6.34399 60.5114 6.81012C59.9983 7.25279 59.7433 7.90361 59.7433 8.7655C59.7433 9.6274 59.9983 10.2577 60.5114 10.7209C61.0479 11.1636 61.8042 11.3834 62.7834 11.3834Z" fill="url(#paint5_linear_1_693)"/>
<path d="M83.1523 30.008C83.1523 28.7034 82.4897 28.0526 81.1617 28.0526H74.1962L81.8272 18.9323C82.2229 18.5131 82.4692 18.0704 82.5601 17.6043C82.6773 17.1147 82.6656 16.6721 82.5249 16.2763C82.4076 15.8571 82.1643 15.5082 81.792 15.2268C81.4197 14.9483 80.9184 14.8076 80.291 14.8076H70.1916C69.5613 14.8076 69.0747 14.9835 68.7229 15.3323C68.374 15.6577 68.1981 16.1473 68.1981 16.8011C68.1981 17.4079 68.374 17.8828 68.7229 18.2346C69.0717 18.5835 69.5613 18.7594 70.1916 18.7594H76.7555L69.2154 27.8093C68.8196 28.2285 68.5499 28.6829 68.4121 29.1725C68.2949 29.662 68.2949 30.1164 68.4121 30.5357C68.5294 30.9549 68.761 31.3037 69.1099 31.5852C69.4587 31.8402 69.8897 31.9692 70.4027 31.9692H81.1646C81.792 31.9692 82.2816 31.805 82.6334 31.4796C82.9822 31.1308 83.1581 30.6412 83.1581 30.0109L83.1523 30.008Z" fill="url(#paint6_linear_1_693)"/>
<path d="M25.8744 18.5806C25.8744 20.3571 25.59 21.8991 25.0242 23.2066C24.4819 24.4878 23.6904 25.4757 22.6555 26.1646C21.6441 26.8301 20.4099 27.1643 18.9558 27.1643C16.7864 27.1643 15.0949 26.4109 13.8871 24.907C12.6792 23.3796 12.0753 21.2688 12.0753 18.5806C12.0753 16.7806 12.345 15.2385 12.8874 13.9574C13.4327 12.6763 14.2213 11.7001 15.2561 11.0346C16.291 10.3691 17.5252 10.0349 18.9558 10.0349C21.1516 10.0349 22.8519 10.7883 24.0597 12.2923C25.2705 13.7727 25.8744 15.8688 25.8744 18.5806Z" fill="url(#paint7_linear_1_693)"/>
<path d="M29.2535 34.9299L28.0544 33.0097C27.4623 32.0482 26.7968 31.368 26.058 30.9752C26.0551 30.9752 26.0551 30.9723 26.0522 30.9723C25.7414 30.8052 25.7267 30.3742 26.0287 30.1895C26.873 29.6765 27.6352 29.0638 28.3154 28.3485C29.4499 27.1641 30.3235 25.7452 30.9421 24.0947C31.5577 22.4413 31.8655 20.5914 31.8655 18.5452C31.8655 15.8569 31.3232 13.5145 30.2385 11.5152C29.1773 9.49237 27.6851 7.92689 25.7619 6.81581C23.8388 5.70766 21.5697 5.15358 18.9547 5.15358C17.0316 5.15358 15.2668 5.47313 13.6661 6.11515C12.086 6.75424 10.7286 7.66891 9.59409 8.85328C8.45956 10.0113 7.58594 11.4155 6.96737 13.0689C6.37811 14.696 6.08202 16.5341 6.08202 18.5804C6.08202 21.2686 6.60971 23.6257 7.67095 25.6485C8.75565 27.6713 10.2625 29.2485 12.1856 30.383C14.1234 31.4882 16.3661 32.0423 18.9166 32.0482H18.9547C19.7287 32.0482 20.356 32.1625 20.8427 32.3794C21.3586 32.6257 21.7779 32.998 22.1003 33.4905L24.3577 37.1756C21.9098 37.9026 19.2567 38.143 16.5068 37.7971C8.00516 36.727 1.22434 29.9462 0.154299 21.4445C-1.41118 9.02917 9.02829 -1.40736 21.4407 0.155189C29.9424 1.22816 36.7232 8.00897 37.7962 16.5106C38.7636 24.2061 35.1196 31.1423 29.2535 34.9299Z" fill="url(#paint8_linear_1_693)"/>
</g>
<defs>
<linearGradient id="paint0_linear_1_693" x1="38.58" y1="43.1181" x2="66.0873" y2="54.8651" gradientUnits="userSpaceOnUse">
<stop stop-color="#9C73FF"/>
<stop offset="0.13" stop-color="#9476FE"/>
<stop offset="0.33" stop-color="#807FFE"/>
<stop offset="0.57" stop-color="#5F8DFE"/>
<stop offset="0.83" stop-color="#31A1FE"/>
<stop offset="1" stop-color="#11B0FE"/>
</linearGradient>
<linearGradient id="paint1_linear_1_693" x1="55.7006" y1="45.6481" x2="85.0402" y2="58.1778" gradientUnits="userSpaceOnUse">
<stop stop-color="#9C73FF"/>
<stop offset="0.13" stop-color="#9476FE"/>
<stop offset="0.33" stop-color="#807FFE"/>
<stop offset="0.57" stop-color="#5F8DFE"/>
<stop offset="0.83" stop-color="#31A1FE"/>
<stop offset="1" stop-color="#11B0FE"/>
</linearGradient>
<linearGradient id="paint2_linear_1_693" x1="77.6027" y1="45.6481" x2="106.942" y2="58.1808" gradientUnits="userSpaceOnUse">
<stop stop-color="#9C73FF"/>
<stop offset="0.13" stop-color="#9476FE"/>
<stop offset="0.33" stop-color="#807FFE"/>
<stop offset="0.57" stop-color="#5F8DFE"/>
<stop offset="0.83" stop-color="#31A1FE"/>
<stop offset="1" stop-color="#11B0FE"/>
</linearGradient>
<linearGradient id="paint3_linear_1_693" x1="37.5745" y1="17.5809" x2="65.3339" y2="29.4392" gradientUnits="userSpaceOnUse">
<stop stop-color="#9C73FF"/>
<stop offset="0.13" stop-color="#9476FE"/>
<stop offset="0.33" stop-color="#807FFE"/>
<stop offset="0.57" stop-color="#5F8DFE"/>
<stop offset="0.83" stop-color="#31A1FE"/>
<stop offset="1" stop-color="#11B0FE"/>
</linearGradient>
<linearGradient id="paint4_linear_1_693" x1="57.0257" y1="20.662" x2="70.6958" y2="26.5018" gradientUnits="userSpaceOnUse">
<stop stop-color="#9C73FF"/>
<stop offset="0.13" stop-color="#9476FE"/>
<stop offset="0.33" stop-color="#807FFE"/>
<stop offset="0.57" stop-color="#5F8DFE"/>
<stop offset="0.83" stop-color="#31A1FE"/>
<stop offset="1" stop-color="#11B0FE"/>
</linearGradient>
<linearGradient id="paint5_linear_1_693" x1="59.3475" y1="7.2909" x2="67.4886" y2="10.7678" gradientUnits="userSpaceOnUse">
<stop stop-color="#9C73FF"/>
<stop offset="0.13" stop-color="#9476FE"/>
<stop offset="0.33" stop-color="#807FFE"/>
<stop offset="0.57" stop-color="#5F8DFE"/>
<stop offset="0.83" stop-color="#31A1FE"/>
<stop offset="1" stop-color="#11B0FE"/>
</linearGradient>
<linearGradient id="paint6_linear_1_693" x1="64.7681" y1="18.8415" x2="90.6513" y2="29.8966" gradientUnits="userSpaceOnUse">
<stop stop-color="#9C73FF"/>
<stop offset="0.13" stop-color="#9476FE"/>
<stop offset="0.33" stop-color="#807FFE"/>
<stop offset="0.57" stop-color="#5F8DFE"/>
<stop offset="0.83" stop-color="#31A1FE"/>
<stop offset="1" stop-color="#11B0FE"/>
</linearGradient>
<linearGradient id="paint7_linear_1_693" x1="10.6506" y1="15.048" x2="30.4184" y2="23.491" gradientUnits="userSpaceOnUse">
<stop stop-color="#9C73FF"/>
<stop offset="0.13" stop-color="#9476FE"/>
<stop offset="0.33" stop-color="#807FFE"/>
<stop offset="0.57" stop-color="#5F8DFE"/>
<stop offset="0.83" stop-color="#31A1FE"/>
<stop offset="1" stop-color="#11B0FE"/>
</linearGradient>
<linearGradient id="paint8_linear_1_693" x1="-2.32584" y1="9.87934" x2="48.3969" y2="31.544" gradientUnits="userSpaceOnUse">
<stop stop-color="#9C73FF"/>
<stop offset="0.13" stop-color="#9476FE"/>
<stop offset="0.33" stop-color="#807FFE"/>
<stop offset="0.57" stop-color="#5F8DFE"/>
<stop offset="0.83" stop-color="#31A1FE"/>
<stop offset="1" stop-color="#11B0FE"/>
</linearGradient>
<clipPath id="clip0_1_693">
<rect width="102.07" height="64" fill="white"/>
</clipPath>
</defs>
</svg>
