<svg width="48" height="48" viewBox="0 0 48 48" fill="none" xmlns="http://www.w3.org/2000/svg">
<rect width="48" height="48" rx="4" fill="#E24040"/>
<path d="M8.87999 8.87999C9.15825 8.60134 9.48872 8.38027 9.85249 8.22944C10.2163 8.07861 10.6062 8.00098 11 8.00098C11.3938 8.00098 11.7837 8.07861 12.1475 8.22944C12.5113 8.38027 12.8417 8.60134 13.12 8.87999L24 19.756L34.88 8.87999C35.1584 8.60159 35.4889 8.38075 35.8527 8.23008C36.2164 8.07941 36.6063 8.00186 37 8.00186C37.3937 8.00186 37.7836 8.07941 38.1473 8.23008C38.5111 8.38075 38.8416 8.60159 39.12 8.87999C39.3984 9.1584 39.6192 9.48891 39.7699 9.85266C39.9206 10.2164 39.9981 10.6063 39.9981 11C39.9981 11.3937 39.9206 11.7836 39.7699 12.1473C39.6192 12.5111 39.3984 12.8416 39.12 13.12L28.244 24L39.12 34.88C39.6823 35.4423 39.9981 36.2048 39.9981 37C39.9981 37.7951 39.6823 38.5577 39.12 39.12C38.5577 39.6823 37.7951 39.9981 37 39.9981C36.2048 39.9981 35.4423 39.6823 34.88 39.12L24 28.244L13.12 39.12C12.5577 39.6823 11.7951 39.9981 11 39.9981C10.2048 39.9981 9.44225 39.6823 8.87999 39.12C8.31774 38.5577 8.00186 37.7951 8.00186 37C8.00186 36.2048 8.31774 35.4423 8.87999 34.88L19.756 24L8.87999 13.12C8.60134 12.8417 8.38027 12.5113 8.22944 12.1475C8.07861 11.7837 8.00098 11.3938 8.00098 11C8.00098 10.6062 8.07861 10.2163 8.22944 9.85249C8.38027 9.48872 8.60134 9.15825 8.87999 8.87999Z" fill="white"/>
</svg>
